# xmcd
#
# Track frame offsets: 
#        150
#        20829
#        40089
#        57312
#        74374
#        89081
#        113617
#        133745
#        150711
#        166398
#        188754
#        208277
#        223801
#        239108
#        251597
#        266355
#        281172
#        295928
#        312387
#
# Disc length: 4385 seconds
#
# Revision: 0
# Processed by: cddbd v1.5.2PL0 Copyright (c) Steve Scherf et al.
# Submitted via: ExactAudioCopy v0.95b4
#
DISCID=32111f13
DTITLE=Лариса Кучина - Хулиганская душа
DYEAR=2006
DGENRE=Chanson
TTITLE0=Лимита
TTITLE1=Печатники
TTITLE2=Хулиганская душа
TTITLE3=Фальшивая любовь
TTITLE4=Сыночек
TTITLE5=Жулик
TTITLE6=Девочка ураганная
TTITLE7=Беспризорник
TTITLE8=Курск
TTITLE9=Рыжий
TTITLE10=Не уходи
TTITLE11=А я красивая
TTITLE12=Сломалась веточка
TTITLE13=Девочка в лесу
TTITLE14=Откройте белую
TTITLE15=Бабий век
TTITLE16=Явилось чудо
TTITLE17=Цыганская гитара
TTITLE18=Мама, мама
EXTD=
EXTT0=
EXTT1=
EXTT2=
EXTT3=
EXTT4=
EXTT5=
EXTT6=
EXTT7=
EXTT8=
EXTT9=
EXTT10=
EXTT11=
EXTT12=
EXTT13=
EXTT14=
EXTT15=
EXTT16=
EXTT17=
EXTT18=
PLAYORDER=
